<?xml version="1.0" standalone="no"?>
<!DOCTYPE svg PUBLIC "-//W3C//DTD SVG 20010904//EN"
 "http://www.w3.org/TR/2001/REC-SVG-20010904/DTD/svg10.dtd">
<svg version="1.0" xmlns="http://www.w3.org/2000/svg"
 width="260.000000pt" height="260.000000pt" viewBox="0 0 260.000000 260.000000"
 preserveAspectRatio="xMidYMid meet">
<metadata>
Created by potrace 1.11, written by Peter Selinger 2001-2013
</metadata>
<g transform="translate(0.000000,260.000000) scale(0.100000,-0.100000)"
fill="#000000" stroke="none">
<path d="M0 1300 l0 -1300 1300 0 1300 0 0 1300 0 1300 -1300 0 -1300 0 0
-1300z m626 1205 c-5 -14 -9 -15 -21 -5 -12 10 -13 16 -4 27 15 18 34 1 25
-22z m824 -5 c0 -24 22 -51 120 -150 109 -109 134 -140 112 -140 -4 0 -60 53
-124 118 -86 86 -121 128 -131 159 -10 30 -11 43 -3 46 18 7 26 -3 26 -33z
m-76 -36 c3 -9 6 -69 6 -135 l0 -119 -355 0 -355 0 0 125 c0 69 3 126 8 126
15 3 414 15 548 17 121 2 143 0 148 -14z m-1056 -285 c-2 -22 -8 -34 -18 -34
-19 0 -26 51 -9 71 18 21 31 3 27 -37z m296 -61 c3 -29 6 -96 6 -148 0 -52 4
-100 8 -105 5 -7 139 -9 402 -5 l395 5 5 150 5 150 116 3 c90 2 119 -1 128
-11 8 -11 10 -202 9 -738 l-3 -724 -127 -3 -128 -3 0 449 c0 335 -3 451 -12
460 -9 9 -111 12 -399 12 -344 0 -388 -2 -393 -16 -3 -9 -6 -213 -6 -455 l0
-439 -107 0 c-60 0 -118 -3 -130 -6 l-23 -6 0 735 c0 579 3 736 13 740 6 3 62
6 123 6 l111 1 7 -52z m1577 -391 c110 -110 132 -137 111 -137 -13 0 -562 560
-562 573 0 10 69 -56 451 -436z m-1376 313 c60 -60 106 -113 102 -117 -8 -7
-227 205 -227 219 0 19 22 1 125 -102z m-500 81 c7 -12 -12 -24 -25 -16 -11 7
-4 25 10 25 5 0 11 -4 15 -9z m7 -763 c2 -403 2 -734 1 -736 0 -2 -10 3 -22
10 l-21 13 0 716 c0 393 3 719 7 722 3 4 12 7 20 7 10 0 13 -134 15 -732z
m1058 -542 c0 -130 3 -175 13 -179 6 -2 8 -8 4 -13 -4 -4 -16 -3 -25 2 -15 10
-17 34 -20 188 -2 152 0 176 13 176 13 0 15 -25 15 -174z m-143 -514 c-1 -125
-2 -22 -2 228 0 250 1 353 2 227 2 -125 2 -329 0 -455z"/>
</g>
</svg>
